<!-- Great Lakes water geometry derived from Natural Earth 1:50m lakes, public domain. Projected into the Bloom Tracker map viewBox. -->
<svg xmlns="http://www.w3.org/2000/svg" viewBox="0 0 1000 760" preserveAspectRatio="none" aria-hidden="true"><path d="M858.4,659.5 L858.1,681.4 L888.1,688.8 L908.8,684.8 L923.4,695.4 L934.3,678.1 L974.0,662.6 L974.0,734.0 L871.7,734.0 L821.3,716.4 L830.2,700.7 L850.5,683.6 L858.4,659.5 Z M910.7,711.7 L905.6,708.2 L904.5,715.3 L910.7,711.7 Z" fill="#dbe8e5" stroke="#b7cdca" stroke-width="1.1" vector-effect="non-scaling-stroke"/><path d="M858.4,659.5 L880.6,648.5 L891.3,623.5 L899.2,618.3 L908.3,618.6 L912.3,635.2 L933.6,640.5 L932.6,651.3 L923.0,655.9 L858.4,659.5 Z" fill="#dbe8e5" stroke="#b7cdca" stroke-width="1.1" vector-effect="non-scaling-stroke"/><path d="M672.0,293.8 L652.7,294.7 L653.2,301.2 L641.1,312.1 L641.1,322.7 L658.4,332.8 L609.5,347.4 L608.1,373.4 L590.5,401.2 L596.5,377.5 L585.7,396.5 L579.8,394.2 L588.7,354.9 L556.7,381.0 L534.8,385.8 L527.3,403.8 L512.7,408.9 L508.7,447.8 L484.2,474.8 L493.1,502.1 L481.7,520.4 L516.8,596.6 L508.3,646.1 L465.3,703.4 L414.1,724.3 L379.2,719.3 L344.1,667.1 L345.9,611.7 L334.2,585.1 L332.7,561.1 L354.8,511.4 L354.8,485.0 L372.9,464.3 L373.7,442.0 L394.5,400.8 L385.5,391.2 L365.3,393.2 L345.2,413.9 L325.3,424.5 L318.8,417.5 L327.2,402.1 L340.5,383.1 L362.8,373.5 L366.5,358.0 L419.0,302.7 L433.4,278.4 L432.3,292.2 L438.3,301.9 L458.5,284.7 L479.4,282.2 L479.8,290.4 L465.3,301.8 L472.9,310.2 L511.3,276.3 L550.6,275.9 L608.4,257.7 L653.8,270.7 L677.3,284.3 L672.0,293.8 Z M587.9,297.8 L584.1,306.7 L586.5,313.0 L596.7,305.9 L596.7,295.4 L587.9,297.8 Z M535.4,360.3 L542.4,367.6 L543.3,362.9 L535.4,360.3 Z M435.2,337.6 L446.6,339.3 L446.6,333.3 L438.3,331.4 L435.2,337.6 Z M426.1,344.6 L388.1,381.8 L392.6,394.1 L400.8,394.5 L410.9,385.2 L433.0,347.6 L426.1,344.6 Z" fill="#dbe8e5" stroke="#b7cdca" stroke-width="1.1" vector-effect="non-scaling-stroke"/><path d="M721.1,214.5 L702.4,222.0 L646.9,214.4 L654.2,185.3 L649.1,183.9 L583.2,194.1 L526.6,194.5 L471.2,220.2 L427.8,210.3 L392.3,212.3 L361.6,179.2 L346.3,172.4 L298.2,165.4 L272.7,181.9 L270.8,158.7 L252.6,141.6 L250.6,134.4 L218.0,155.3 L173.4,173.1 L136.1,177.9 L51.3,205.8 L26.0,196.1 L26.0,183.4 L38.2,176.0 L26.0,178.2 L26.0,88.3 L121.5,59.7 L174.5,34.9 L180.1,26.0 L530.7,26.0 L565.5,51.9 L666.6,54.2 L649.1,89.1 L695.2,124.6 L675.3,159.6 L691.8,168.6 L718.1,170.4 L718.4,176.2 L699.6,181.5 L701.1,193.4 L712.3,190.6 L698.0,210.3 L705.4,216.8 L721.1,214.5 Z M43.2,164.2 L31.4,167.0 L31.3,168.6 L42.8,169.0 L43.2,164.2 Z M56.0,157.2 L53.7,152.7 L51.0,158.1 L56.0,157.2 Z M215.6,61.9 L268.8,29.7 L196.2,53.9 L190.9,65.2 L215.6,61.9 Z M350.3,112.0 L286.8,113.4 L260.3,129.9 L254.4,140.8 L274.3,146.5 L276.2,138.9 L277.1,145.5 L270.5,154.8 L277.8,157.9 L297.6,136.7 L324.7,120.7 L319.6,116.6 L350.3,112.0 Z M584.3,77.5 L560.0,70.5 L546.5,76.9 L584.3,77.5 Z" fill="#dbe8e5" stroke="#b7cdca" stroke-width="1.1" vector-effect="non-scaling-stroke"/><path d="M742.2,208.2 L750.7,214.3 L750.2,230.2 L777.5,236.6 L867.1,249.8 L941.1,248.5 L974.0,255.4 L974.0,274.2 L963.9,283.6 L943.1,271.4 L917.2,278.7 L921.2,290.5 L895.7,284.8 L886.8,270.5 L859.2,276.5 L850.6,272.8 L845.6,280.1 L910.9,294.1 L974.0,316.8 L974.0,568.9 L969.8,572.7 L933.8,584.6 L906.8,497.8 L883.2,477.5 L870.5,476.1 L828.0,490.5 L831.2,495.2 L818.5,510.7 L796.7,522.1 L767.1,510.0 L773.6,486.5 L802.6,476.4 L813.7,454.1 L833.7,443.1 L837.1,399.8 L820.4,377.8 L823.2,370.7 L839.3,372.0 L817.4,340.7 L752.3,322.5 L733.7,307.9 L676.7,291.9 L680.8,274.1 L691.1,263.8 L703.2,270.1 L771.1,271.6 L755.8,259.9 L754.3,252.2 L733.1,247.4 L738.0,242.6 L735.2,229.7 L721.1,214.5 L742.2,208.2 Z M818.7,276.4 L827.5,283.7 L840.4,275.3 L832.0,270.3 L818.7,276.4 Z M814.7,268.1 L794.9,257.9 L791.5,265.4 L774.0,270.4 L813.1,274.0 L814.7,268.1 Z M782.8,246.2 L772.2,238.6 L749.7,238.2 L767.9,259.5 L782.8,246.2 Z M738.9,236.5 L745.5,243.3 L747.1,242.8 L745.2,236.2 L738.9,236.5 Z M745.7,232.4 L744.7,211.6 L736.7,211.1 L730.2,216.4 L745.7,232.4 Z M698.6,290.7 L711.9,298.2 L719.2,294.9 L714.6,289.6 L698.6,290.7 Z" fill="#dbe8e5" stroke="#b7cdca" stroke-width="1.1" vector-effect="non-scaling-stroke"/></svg>